<svg xmlns="http://www.w3.org/2000/svg" viewBox="0 0 231.02 99.5">
  <defs>
    <style>.cls-1{fill:#fff;}.cls-2{fill:#6e6666;}.cls-3{fill:#7abed7;}</style>
  </defs>
    <path class="cls-1"
        d="M50.4,71.26a.67.67,0,0,0,.3-.43.69.69,0,0,0-.53-.81l-26-5.54a.67.67,0,0,0-.79.52.69.69,0,0,0,.1.51L30.9,76.76a6.08,6.08,0,0,0,8.43,1.8Z"/>
  <path class="cls-1"
        d="M32.47,14.38,61.63,20.6,53.33,8a6.08,6.08,0,0,0-8.43-1.8Z"/>
  <path class="cls-1"
        d="M43.09,37.44a2.66,2.66,0,0,0,2-.38L61.59,26.19a.67.67,0,0,0,.29-.43.69.69,0,0,0-.53-.81L31.08,18.48a.67.67,0,0,0-.79.53.68.68,0,0,0,.1.51l11,16.74A2.74,2.74,0,0,0,43.09,37.44Z"/>
  <path class="cls-1"
        d="M6.16,39.1,13,49.57a.68.68,0,0,0,.43.3.67.67,0,0,0,.79-.52l4.92-24.8a.69.69,0,0,0-.53-.81.66.66,0,0,0-.51.1l-10.3,6.8A6.12,6.12,0,0,0,6.16,39.1Z"/>
  <path class="cls-1"
        d="M78.07,45.63,71.19,35.16a.67.67,0,0,0-.43-.3.66.66,0,0,0-.79.52L65.05,60.18a.69.69,0,0,0,.53.81.66.66,0,0,0,.51-.1l10.3-6.79A6.12,6.12,0,0,0,78.07,45.63Z"/>
  <path class="cls-2"
        d="M82.19,42.1,58.2,5.58A12.17,12.17,0,0,0,41.34,2L5.41,25.69A12.23,12.23,0,0,0,2,42.63L26,79.15a12.17,12.17,0,0,0,16.85,3.6L78.83,59A12.23,12.23,0,0,0,82.19,42.1ZM30.9,76.76,23.51,65.51a.69.69,0,0,1-.1-.51.67.67,0,0,1,.79-.52l26,5.54a.69.69,0,0,1,.53.81.67.67,0,0,1-.3.43l-11.07,7.3A6.08,6.08,0,0,1,30.9,76.76ZM53.33,8l8.3,12.63L32.47,14.38,44.9,6.17A6.08,6.08,0,0,1,53.33,8ZM38,38.48a6.82,6.82,0,0,0,4.29,2.95,6.63,6.63,0,0,0,5.07-.95L65.89,28.26c.26-.16.44,0,.53.22a4.54,4.54,0,0,1,.1,2.19L60.09,63.11A4.43,4.43,0,0,1,54.8,66.6L21.24,59.43a4.6,4.6,0,0,1-3.53-5.37l6.43-32.44a4.45,4.45,0,0,1,.93-2c.17-.18.39-.25.57,0ZM30.28,19a.67.67,0,0,1,.79-.53l30.27,6.47a.69.69,0,0,1,.53.81.67.67,0,0,1-.29.43L45.12,37.06a2.66,2.66,0,0,1-2,.38,2.74,2.74,0,0,1-1.72-1.18l-11-16.74A.68.68,0,0,1,30.28,19ZM18.15,23.83a.66.66,0,0,1,.51-.1.69.69,0,0,1,.53.81l-4.92,24.8a.67.67,0,0,1-.79.52.68.68,0,0,1-.43-.3L6.16,39.1a6.12,6.12,0,0,1,1.68-8.47ZM66.09,60.9a.66.66,0,0,1-.51.1.69.69,0,0,1-.53-.81L70,35.39a.66.66,0,0,1,.79-.52.67.67,0,0,1,.43.3l6.88,10.47a6.12,6.12,0,0,1-1.68,8.47Z"/>
  <path class="cls-3"
        d="M25.08,19.65a4.45,4.45,0,0,0-.93,2L17.71,54.06a4.6,4.6,0,0,0,3.53,5.37L54.8,66.6a4.43,4.43,0,0,0,5.29-3.49l6.43-32.44a4.54,4.54,0,0,0-.1-2.19c-.08-.24-.26-.39-.53-.22L47.37,40.48a6.63,6.63,0,0,1-5.07.95A6.82,6.82,0,0,1,38,38.48L25.65,19.67C25.47,19.4,25.24,19.47,25.08,19.65Z"/>
  <path class="cls-3"
        d="M98.79,42.62H90.88V9.23H98.3L110,26.13l.9,1.44V9.23h8V42.62H112.5L99.69,24.15l-.9-1.48Z"/>
  <path class="cls-3" d="M122,42.62V9.23h8.13V35.61h12.54v7Z"/>
  <path class="cls-3"
        d="M156.85,29.81l-4.4-1c-5.21-1.21-7.32-3.55-7.32-9.75,0-6.92,4.4-10.25,11.1-10.25a49.13,49.13,0,0,1,10.88,1.3l-1,6.7a83.88,83.88,0,0,0-9.26-1.08c-2.47,0-3.51,1.17-3.51,2.83,0,1.84,1.26,2.79,3.78,3.37l4.18.85c5,1.08,7,4,7,10,0,6.65-3.73,10.29-11,10.29a55.86,55.86,0,0,1-12.13-1.66l.9-6.65s6.74,1.53,10.07,1.53c2.92,0,4.13-1.08,4.13-3S159.5,30.44,156.85,29.81Z"/>
  <path class="cls-3"
        d="M93.85,61.58H90.73V44.92h3l6.68,9.86.4.72V44.92H104V61.58h-2.6L94.21,51l-.36-.63Z"/>
  <path class="cls-3"
        d="M115.18,57.36h-5.29l-1.12,4.22h-3.38l4.86-16.66h4.64l5,16.66h-3.56Zm-2.64-10.24-.16.92-1.77,6.59h3.83L112.71,48Z"/>
  <path class="cls-3"
        d="M117.85,47.72v-2.8h12.28v2.8h-4.57V61.58h-3.14V47.72Z"/>
  <path class="cls-3" d="M131.9,44.92H135V61.58H131.9Z"/>
  <path class="cls-3"
        d="M143.37,61.8c-4.55,0-7.15-2.47-7.15-8.72,0-5.67,2.6-8.38,7.15-8.38,4.71,0,7.19,2.58,7.19,8.38C150.57,59.34,147.9,61.8,143.37,61.8Zm0-2.58c2.44,0,4-1.84,4-6.05,0-4.51-1.59-5.9-4-5.9s-3.9,1.39-3.9,5.85C139.47,57.36,141,59.23,143.37,59.23Z"/>
  <path class="cls-3"
        d="M154.87,61.58h-3.12V44.92h3l6.68,9.86.4.72V44.92H165V61.58h-2.6L155.23,51l-.36-.63Z"/>
  <path class="cls-3"
        d="M175.86,57.36h-5.29l-1.12,4.22h-3.39l4.87-16.66h4.64l5,16.66H177Zm-2.65-10.24-.16.92-1.77,6.59h3.83L173.39,48Z"/>
  <path class="cls-3" d="M181.74,61.58V44.92h3.14V58.8h6.39v2.78Z"/>
  <path class="cls-3" d="M90.73,80.53V63.88h3.14V77.75h6.39v2.78Z"/>
  <path class="cls-3"
        d="M111.07,76.32h-5.29l-1.12,4.22h-3.39l4.86-16.66h4.64l5,16.66h-3.56Zm-2.65-10.24-.16.92-1.77,6.59h3.83L108.61,67Z"/>
  <path class="cls-3"
        d="M120,80.53h-3.11V63.88h3l6.68,9.86.4.72V63.88h3.16V80.53h-2.6L120.41,70l-.36-.63Z"/>
  <path class="cls-3"
        d="M132.06,63.88h6.25c4.21,0,6.61,2.47,6.61,8.18,0,5.87-2.33,8.47-6.61,8.47h-6.25Zm3.14,14h2.51c2.15,0,4-1.19,4-6,0-4.42-1.68-5.41-4-5.41h-2.49Z"/>
  <path class="cls-3"
        d="M158.39,73.76l-2.2-.51c-2.42-.58-3.7-1.66-3.7-4.64,0-3.32,2.06-5,5.18-5a22.07,22.07,0,0,1,5,.63l-.4,2.6a32.36,32.36,0,0,0-4.42-.54c-1.57,0-2.24.85-2.24,2s.83,1.88,2.4,2.26l2.13.49c2.18.52,3.21,1.86,3.21,4.75,0,3.09-1.75,4.91-5.11,4.91a27.25,27.25,0,0,1-5.65-.74l.36-2.65a27.06,27.06,0,0,0,4.71.72c1.82,0,2.67-.74,2.67-2.06C160.32,74.86,159.91,74.12,158.39,73.76Z"/>
  <path class="cls-3"
        d="M177.41,63.88v9.73c0,4.57-1.61,7.15-6.48,7.15s-6.39-2.62-6.39-7.2V63.88h3.23v9.46c0,3.56,1,4.78,3.34,4.78s3.14-1.21,3.14-4.78V63.88Z"/>
  <path class="cls-3"
        d="M187.66,80.53,185,74.68h-2.62v5.85h-3.09V63.88h5.51c2.24,0,6.05.2,6.05,5.54,0,3.81-2.31,4.53-3,4.73L191,80.53Zm-5.29-8.45h2.44c2,0,2.8-.7,2.8-2.94,0-2-1.21-2.67-2.8-2.67h-2.44Z"/>
  <path class="cls-3"
        d="M195.74,80.53,191,63.88h3.54L197.92,77l.16.92.16-.92,3.3-13.16h3.41l-4.75,16.66Z"/>
  <path class="cls-3"
        d="M206.3,80.53V63.88h10.38v2.73h-7.24v4.22h6.43v2.71h-6.43v4.21h7.47v2.78Z"/>
  <path class="cls-3"
        d="M222.79,74.28,218,63.88h3.5l2.76,7,.18.78.18-.78,2.94-7H231l-5.09,10.56v6.1h-3.14Z"/>
  <path class="cls-3"
        d="M114.62,82.84v2.92H108v4.66h6v2.87h-6V99.5h-3.14V82.84Z"/>
  <path class="cls-3"
        d="M133.24,82.84v2.92h-6.63v4.66h6v2.87h-6V99.5h-3.14V82.84Z"/>
  <path class="cls-3" d="M135.1,82.84h3.14V99.5H135.1Z"/>
  <path class="cls-3"
        d="M143.2,99.5h-3.12V82.84h3l6.68,9.86.4.72V82.84h3.16V99.5h-2.6l-7.2-10.58-.36-.63Z"/>
  <path class="cls-3" d="M155.22,99.5V82.84h3.14V96.72h6.39V99.5Z"/>
  <path class="cls-3"
        d="M175.64,95.28h-5.29l-1.12,4.21h-3.39l4.87-16.66h4.64l5,16.66H176.8ZM173,85l-.16.92-1.77,6.59h3.83L173.17,86Z"/>
  <path class="cls-3"
        d="M184.87,99.5h-3.12V82.84h3l6.68,9.86.4.72V82.84H195V99.5h-2.6l-7.2-10.58-.36-.63Z"/>
  <path class="cls-3"
        d="M196.89,82.84h6.25c4.22,0,6.61,2.47,6.61,8.18,0,5.87-2.33,8.47-6.61,8.47h-6.25Zm3.14,14h2.51c2.15,0,4-1.19,4-6,0-4.42-1.68-5.4-4-5.4H200Z"/>
  <path class="cls-3"
        d="M94.3,99.5h4.26c3.22-.72,5.07-3.3,5.07-8.5,0-5.81-2.49-8.38-7.2-8.38-4.55,0-7.15,2.71-7.15,8.38C89.28,96.2,91.08,98.77,94.3,99.5Zm2.13-14.3c2.38,0,4,1.39,4,5.9,0,4.22-1.52,6.05-4,6.05s-3.9-1.86-3.9-6.1C92.53,86.58,94.14,85.2,96.43,85.2Z"/>
</svg>
