<svg id="my-svg" width="100%" xmlns="http://www.w3.org/2000/svg" xmlns:xlink="http://www.w3.org/1999/xlink" style="max-width: 2500px; background-color: transparent;" viewBox="0 -25 2500 540" preserveAspectRatio="xMinYMin meet" height="565" role="graphics-document document" aria-roledescription="journey"><style>#my-svg{font-family:"trebuchet ms",verdana,arial,sans-serif;font-size:16px;fill:#333;}@keyframes edge-animation-frame{from{stroke-dashoffset:0;}}@keyframes dash{to{stroke-dashoffset:0;}}#my-svg .edge-animation-slow{stroke-dasharray:9,5!important;stroke-dashoffset:900;animation:dash 50s linear infinite;stroke-linecap:round;}#my-svg .edge-animation-fast{stroke-dasharray:9,5!important;stroke-dashoffset:900;animation:dash 20s linear infinite;stroke-linecap:round;}#my-svg .error-icon{fill:#552222;}#my-svg .error-text{fill:#552222;stroke:#552222;}#my-svg .edge-thickness-normal{stroke-width:1px;}#my-svg .edge-thickness-thick{stroke-width:3.5px;}#my-svg .edge-pattern-solid{stroke-dasharray:0;}#my-svg .edge-thickness-invisible{stroke-width:0;fill:none;}#my-svg .edge-pattern-dashed{stroke-dasharray:3;}#my-svg .edge-pattern-dotted{stroke-dasharray:2;}#my-svg .marker{fill:#333333;stroke:#333333;}#my-svg .marker.cross{stroke:#333333;}#my-svg svg{font-family:"trebuchet ms",verdana,arial,sans-serif;font-size:16px;}#my-svg p{margin:0;}#my-svg .label{font-family:"trebuchet ms",verdana,arial,sans-serif;color:#333;}#my-svg .mouth{stroke:#666;}#my-svg line{stroke:#333;}#my-svg .legend{fill:#333;font-family:"trebuchet ms",verdana,arial,sans-serif;}#my-svg .label text{fill:#333;}#my-svg .label{color:#333;}#my-svg .face{fill:#FFF8DC;stroke:#999;}#my-svg .node rect,#my-svg .node circle,#my-svg .node ellipse,#my-svg .node polygon,#my-svg .node path{fill:#ECECFF;stroke:#9370DB;stroke-width:1px;}#my-svg .node .label{text-align:center;}#my-svg .node.clickable{cursor:pointer;}#my-svg .arrowheadPath{fill:#333333;}#my-svg .edgePath .path{stroke:#333333;stroke-width:1.5px;}#my-svg .flowchart-link{stroke:#333333;fill:none;}#my-svg .edgeLabel{background-color:rgba(232,232,232, 0.8);text-align:center;}#my-svg .edgeLabel rect{opacity:0.5;}#my-svg .cluster text{fill:#333;}#my-svg div.mermaidTooltip{position:absolute;text-align:center;max-width:200px;padding:2px;font-family:"trebuchet ms",verdana,arial,sans-serif;font-size:12px;background:hsl(80, 100%, 96.2745098039%);border:1px solid #aaaa33;border-radius:2px;pointer-events:none;z-index:100;}#my-svg .task-type-0,#my-svg .section-type-0{fill:#ECECFF;}#my-svg .task-type-1,#my-svg .section-type-1{fill:#ffffde;}#my-svg .task-type-2,#my-svg .section-type-2{fill:hsl(304, 100%, 96.2745098039%);}#my-svg .task-type-3,#my-svg .section-type-3{fill:hsl(124, 100%, 93.5294117647%);}#my-svg .task-type-4,#my-svg .section-type-4{fill:hsl(176, 100%, 96.2745098039%);}#my-svg .task-type-5,#my-svg .section-type-5{fill:hsl(-4, 100%, 93.5294117647%);}#my-svg .task-type-6,#my-svg .section-type-6{fill:hsl(8, 100%, 96.2745098039%);}#my-svg .task-type-7,#my-svg .section-type-7{fill:hsl(188, 100%, 93.5294117647%);}#my-svg .label-icon{display:inline-block;height:1em;overflow:visible;vertical-align:-0.125em;}#my-svg .node .label-icon path{fill:currentColor;stroke:revert;stroke-width:revert;}#my-svg :root{--mermaid-font-family:"trebuchet ms",verdana,arial,sans-serif;}</style><g/><defs><marker id="arrowhead" refX="5" refY="2" markerWidth="6" markerHeight="4" orient="auto"><path d="M 0,0 V 4 L6,2 Z"/></marker></defs><circle cx="20" cy="60" class="actor-0" fill="#8FBC8F" stroke="#000" r="7"/><text x="40" y="67" class="legend"><tspan x="50">Cesium</tspan></text><circle cx="20" cy="80" class="actor-1" fill="#7CFC00" stroke="#000" r="7"/><text x="40" y="87" class="legend"><tspan x="50">Emma</tspan></text><g><rect x="150" y="50" fill="#191970" stroke="#666" width="350" height="50" rx="3" ry="3" class="journey-section section-type-0"/><switch><foreignObject x="150" y="50" width="350" height="50"><div class="journey-section section-type-0" xmlns="http://www.w3.org/1999/xhtml" style="display: table; height: 100%; width: 100%;"><div class="label" style="display: table-cell; text-align: center; vertical-align: middle;">Locate</div></div></foreignObject><text x="325" y="75" dominant-baseline="central" alignment-baseline="central" class="journey-section section-type-0" style="text-anchor: middle; font-size: 14px; font-family: &quot;Open Sans&quot;, sans-serif;"><tspan x="325" dy="0">Locate</tspan></text></switch></g><g><line id="task0" x1="225" y1="110" x2="225" y2="450" class="task-line" stroke-width="1px" stroke-dasharray="4 2" stroke="#666"/><circle cx="225" cy="300" class="face" r="15" stroke-width="2" overflow="visible"/><g><circle cx="220" cy="295" r="1.5" stroke-width="2" fill="#666" stroke="#666"/><circle cx="230" cy="295" r="1.5" stroke-width="2" fill="#666" stroke="#666"/><path class="mouth" d="M7.5,0A7.5,7.5,0,1,1,-7.5,0L-6.818,0A6.818,6.818,0,1,0,6.818,0Z" transform="translate(225,302)"/></g><rect x="150" y="110" fill="#191970" stroke="#666" width="150" height="50" rx="3" ry="3" class="task task-type-0"/><circle cx="164" cy="110" class="actor-1" fill="#7CFC00" stroke="#000" r="7"><title>Emma</title></circle><switch><foreignObject x="150" y="110" width="150" height="50"><div class="task" xmlns="http://www.w3.org/1999/xhtml" style="display: table; height: 100%; width: 100%;"><div class="label" style="display: table-cell; text-align: center; vertical-align: middle;">Type 00100 in search</div></div></foreignObject><text x="225" y="135" dominant-baseline="central" alignment-baseline="central" class="task" style="text-anchor: middle; font-size: 14px; font-family: &quot;Open Sans&quot;, sans-serif;"><tspan x="225" dy="0">Type 00100 in search</tspan></text></switch></g><g><line id="task1" x1="425" y1="110" x2="425" y2="450" class="task-line" stroke-width="1px" stroke-dasharray="4 2" stroke="#666"/><circle cx="425" cy="300" class="face" r="15" stroke-width="2" overflow="visible"/><g><circle cx="420" cy="295" r="1.5" stroke-width="2" fill="#666" stroke="#666"/><circle cx="430" cy="295" r="1.5" stroke-width="2" fill="#666" stroke="#666"/><path class="mouth" d="M7.5,0A7.5,7.5,0,1,1,-7.5,0L-6.818,0A6.818,6.818,0,1,0,6.818,0Z" transform="translate(425,302)"/></g><rect x="350" y="110" fill="#191970" stroke="#666" width="150" height="50" rx="3" ry="3" class="task task-type-0"/><circle cx="364" cy="110" class="actor-1" fill="#7CFC00" stroke="#000" r="7"><title>Emma</title></circle><switch><foreignObject x="350" y="110" width="150" height="50"><div class="task" xmlns="http://www.w3.org/1999/xhtml" style="display: table; height: 100%; width: 100%;"><div class="label" style="display: table-cell; text-align: center; vertical-align: middle;">Submit search</div></div></foreignObject><text x="425" y="135" dominant-baseline="central" alignment-baseline="central" class="task" style="text-anchor: middle; font-size: 14px; font-family: &quot;Open Sans&quot;, sans-serif;"><tspan x="425" dy="0">Submit search</tspan></text></switch></g><g><rect x="550" y="50" fill="#8B008B" stroke="#666" width="550" height="50" rx="3" ry="3" class="journey-section section-type-1"/><switch><foreignObject x="550" y="50" width="550" height="50"><div class="journey-section section-type-1" xmlns="http://www.w3.org/1999/xhtml" style="display: table; height: 100%; width: 100%;"><div class="label" style="display: table-cell; text-align: center; vertical-align: middle;">Land at zone</div></div></foreignObject><text x="825" y="75" dominant-baseline="central" alignment-baseline="central" class="journey-section section-type-1" style="text-anchor: middle; font-size: 14px; font-family: &quot;Open Sans&quot;, sans-serif;"><tspan x="825" dy="0">Land at zone</tspan></text></switch></g><g><line id="task2" x1="625" y1="110" x2="625" y2="450" class="task-line" stroke-width="1px" stroke-dasharray="4 2" stroke="#666"/><circle cx="625" cy="300" class="face" r="15" stroke-width="2" overflow="visible"/><g><circle cx="620" cy="295" r="1.5" stroke-width="2" fill="#666" stroke="#666"/><circle cx="630" cy="295" r="1.5" stroke-width="2" fill="#666" stroke="#666"/><path class="mouth" d="M7.5,0A7.5,7.5,0,1,1,-7.5,0L-6.818,0A6.818,6.818,0,1,0,6.818,0Z" transform="translate(625,302)"/></g><rect x="550" y="110" fill="#8B008B" stroke="#666" width="150" height="50" rx="3" ry="3" class="task task-type-1"/><circle cx="564" cy="110" class="actor-1" fill="#7CFC00" stroke="#000" r="7"><title>Emma</title></circle><circle cx="574" cy="110" class="actor-0" fill="#8FBC8F" stroke="#000" r="7"><title>Cesium</title></circle><switch><foreignObject x="550" y="110" width="150" height="50"><div class="task" xmlns="http://www.w3.org/1999/xhtml" style="display: table; height: 100%; width: 100%;"><div class="label" style="display: table-cell; text-align: center; vertical-align: middle;">Camera flies to area</div></div></foreignObject><text x="625" y="135" dominant-baseline="central" alignment-baseline="central" class="task" style="text-anchor: middle; font-size: 14px; font-family: &quot;Open Sans&quot;, sans-serif;"><tspan x="625" dy="0">Camera flies to area</tspan></text></switch></g><g><line id="task3" x1="825" y1="110" x2="825" y2="450" class="task-line" stroke-width="1px" stroke-dasharray="4 2" stroke="#666"/><circle cx="825" cy="300" class="face" r="15" stroke-width="2" overflow="visible"/><g><circle cx="820" cy="295" r="1.5" stroke-width="2" fill="#666" stroke="#666"/><circle cx="830" cy="295" r="1.5" stroke-width="2" fill="#666" stroke="#666"/><path class="mouth" d="M7.5,0A7.5,7.5,0,1,1,-7.5,0L-6.818,0A6.818,6.818,0,1,0,6.818,0Z" transform="translate(825,302)"/></g><rect x="750" y="110" fill="#8B008B" stroke="#666" width="150" height="50" rx="3" ry="3" class="task task-type-1"/><circle cx="764" cy="110" class="actor-1" fill="#7CFC00" stroke="#000" r="7"><title>Emma</title></circle><circle cx="774" cy="110" class="actor-0" fill="#8FBC8F" stroke="#000" r="7"><title>Cesium</title></circle><switch><foreignObject x="750" y="110" width="150" height="50"><div class="task" xmlns="http://www.w3.org/1999/xhtml" style="display: table; height: 100%; width: 100%;"><div class="label" style="display: table-cell; text-align: center; vertical-align: middle;">Buildings render</div></div></foreignObject><text x="825" y="135" dominant-baseline="central" alignment-baseline="central" class="task" style="text-anchor: middle; font-size: 14px; font-family: &quot;Open Sans&quot;, sans-serif;"><tspan x="825" dy="0">Buildings render</tspan></text></switch></g><g><line id="task4" x1="1025" y1="110" x2="1025" y2="450" class="task-line" stroke-width="1px" stroke-dasharray="4 2" stroke="#666"/><circle cx="1025" cy="420" class="face" r="15" stroke-width="2" overflow="visible"/><g><circle cx="1020" cy="415" r="1.5" stroke-width="2" fill="#666" stroke="#666"/><circle cx="1030" cy="415" r="1.5" stroke-width="2" fill="#666" stroke="#666"/><path class="mouth" d="M-7.5,0A7.5,7.5,0,1,1,7.5,0L6.818,0A6.818,6.818,0,1,0,-6.818,0Z" transform="translate(1025,427)"/></g><rect x="950" y="110" fill="#8B008B" stroke="#666" width="150" height="50" rx="3" ry="3" class="task task-type-1"/><circle cx="964" cy="110" class="actor-1" fill="#7CFC00" stroke="#000" r="7"><title>Emma</title></circle><switch><foreignObject x="950" y="110" width="150" height="50"><div class="task" xmlns="http://www.w3.org/1999/xhtml" style="display: table; height: 100%; width: 100%;"><div class="label" style="display: table-cell; text-align: center; vertical-align: middle;">Breadcrumb says zone name</div></div></foreignObject><text x="1025" y="135" dominant-baseline="central" alignment-baseline="central" class="task" style="text-anchor: middle; font-size: 14px; font-family: &quot;Open Sans&quot;, sans-serif;"><tspan x="1025" dy="0">Breadcrumb says zone name</tspan></text></switch></g><g><rect x="1150" y="50" fill="#4B0082" stroke="#666" width="350" height="50" rx="3" ry="3" class="journey-section section-type-2"/><switch><foreignObject x="1150" y="50" width="350" height="50"><div class="journey-section section-type-2" xmlns="http://www.w3.org/1999/xhtml" style="display: table; height: 100%; width: 100%;"><div class="label" style="display: table-cell; text-align: center; vertical-align: middle;">Read DETAILS</div></div></foreignObject><text x="1325" y="75" dominant-baseline="central" alignment-baseline="central" class="journey-section section-type-2" style="text-anchor: middle; font-size: 14px; font-family: &quot;Open Sans&quot;, sans-serif;"><tspan x="1325" dy="0">Read DETAILS</tspan></text></switch></g><g><line id="task5" x1="1225" y1="110" x2="1225" y2="450" class="task-line" stroke-width="1px" stroke-dasharray="4 2" stroke="#666"/><circle cx="1225" cy="330" class="face" r="15" stroke-width="2" overflow="visible"/><g><circle cx="1220" cy="325" r="1.5" stroke-width="2" fill="#666" stroke="#666"/><circle cx="1230" cy="325" r="1.5" stroke-width="2" fill="#666" stroke="#666"/><path class="mouth" d="M7.5,0A7.5,7.5,0,1,1,-7.5,0L-6.818,0A6.818,6.818,0,1,0,6.818,0Z" transform="translate(1225,332)"/></g><rect x="1150" y="110" fill="#4B0082" stroke="#666" width="150" height="50" rx="3" ry="3" class="task task-type-2"/><circle cx="1164" cy="110" class="actor-1" fill="#7CFC00" stroke="#000" r="7"><title>Emma</title></circle><switch><foreignObject x="1150" y="110" width="150" height="50"><div class="task" xmlns="http://www.w3.org/1999/xhtml" style="display: table; height: 100%; width: 100%;"><div class="label" style="display: table-cell; text-align: center; vertical-align: middle;">Open DETAILS tab</div></div></foreignObject><text x="1225" y="135" dominant-baseline="central" alignment-baseline="central" class="task" style="text-anchor: middle; font-size: 14px; font-family: &quot;Open Sans&quot;, sans-serif;"><tspan x="1225" dy="0">Open DETAILS tab</tspan></text></switch></g><g><line id="task6" x1="1425" y1="110" x2="1425" y2="450" class="task-line" stroke-width="1px" stroke-dasharray="4 2" stroke="#666"/><circle cx="1425" cy="420" class="face" r="15" stroke-width="2" overflow="visible"/><g><circle cx="1420" cy="415" r="1.5" stroke-width="2" fill="#666" stroke="#666"/><circle cx="1430" cy="415" r="1.5" stroke-width="2" fill="#666" stroke="#666"/><path class="mouth" d="M-7.5,0A7.5,7.5,0,1,1,7.5,0L6.818,0A6.818,6.818,0,1,0,-6.818,0Z" transform="translate(1425,427)"/></g><rect x="1350" y="110" fill="#4B0082" stroke="#666" width="150" height="50" rx="3" ry="3" class="task task-type-2"/><circle cx="1364" cy="110" class="actor-1" fill="#7CFC00" stroke="#000" r="7"><title>Emma</title></circle><switch><foreignObject x="1350" y="110" width="150" height="50"><div class="task" xmlns="http://www.w3.org/1999/xhtml" style="display: table; height: 100%; width: 100%;"><div class="label" style="display: table-cell; text-align: center; vertical-align: middle;">See population &amp; building count</div></div></foreignObject><text x="1425" y="135" dominant-baseline="central" alignment-baseline="central" class="task" style="text-anchor: middle; font-size: 14px; font-family: &quot;Open Sans&quot;, sans-serif;"><tspan x="1425" dy="0">See population &amp; building count</tspan></text></switch></g><g><rect x="1550" y="50" fill="#2F4F4F" stroke="#666" width="750" height="50" rx="3" ry="3" class="journey-section section-type-3"/><switch><foreignObject x="1550" y="50" width="750" height="50"><div class="journey-section section-type-3" xmlns="http://www.w3.org/1999/xhtml" style="display: table; height: 100%; width: 100%;"><div class="label" style="display: table-cell; text-align: center; vertical-align: middle;">Run ANALYSIS</div></div></foreignObject><text x="1925" y="75" dominant-baseline="central" alignment-baseline="central" class="journey-section section-type-3" style="text-anchor: middle; font-size: 14px; font-family: &quot;Open Sans&quot;, sans-serif;"><tspan x="1925" dy="0">Run ANALYSIS</tspan></text></switch></g><g><line id="task7" x1="1625" y1="110" x2="1625" y2="450" class="task-line" stroke-width="1px" stroke-dasharray="4 2" stroke="#666"/><circle cx="1625" cy="330" class="face" r="15" stroke-width="2" overflow="visible"/><g><circle cx="1620" cy="325" r="1.5" stroke-width="2" fill="#666" stroke="#666"/><circle cx="1630" cy="325" r="1.5" stroke-width="2" fill="#666" stroke="#666"/><path class="mouth" d="M7.5,0A7.5,7.5,0,1,1,-7.5,0L-6.818,0A6.818,6.818,0,1,0,6.818,0Z" transform="translate(1625,332)"/></g><rect x="1550" y="110" fill="#2F4F4F" stroke="#666" width="150" height="50" rx="3" ry="3" class="task task-type-3"/><circle cx="1564" cy="110" class="actor-1" fill="#7CFC00" stroke="#000" r="7"><title>Emma</title></circle><switch><foreignObject x="1550" y="110" width="150" height="50"><div class="task" xmlns="http://www.w3.org/1999/xhtml" style="display: table; height: 100%; width: 100%;"><div class="label" style="display: table-cell; text-align: center; vertical-align: middle;">Open ANALYSIS tab</div></div></foreignObject><text x="1625" y="135" dominant-baseline="central" alignment-baseline="central" class="task" style="text-anchor: middle; font-size: 14px; font-family: &quot;Open Sans&quot;, sans-serif;"><tspan x="1625" dy="0">Open ANALYSIS tab</tspan></text></switch></g><g><line id="task8" x1="1825" y1="110" x2="1825" y2="450" class="task-line" stroke-width="1px" stroke-dasharray="4 2" stroke="#666"/><circle cx="1825" cy="420" class="face" r="15" stroke-width="2" overflow="visible"/><g><circle cx="1820" cy="415" r="1.5" stroke-width="2" fill="#666" stroke="#666"/><circle cx="1830" cy="415" r="1.5" stroke-width="2" fill="#666" stroke="#666"/><path class="mouth" d="M-7.5,0A7.5,7.5,0,1,1,7.5,0L6.818,0A6.818,6.818,0,1,0,-6.818,0Z" transform="translate(1825,427)"/></g><rect x="1750" y="110" fill="#2F4F4F" stroke="#666" width="150" height="50" rx="3" ry="3" class="task task-type-3"/><circle cx="1764" cy="110" class="actor-1" fill="#7CFC00" stroke="#000" r="7"><title>Emma</title></circle><switch><foreignObject x="1750" y="110" width="150" height="50"><div class="task" xmlns="http://www.w3.org/1999/xhtml" style="display: table; height: 100%; width: 100%;"><div class="label" style="display: table-cell; text-align: center; vertical-align: middle;">Click Heat Distribution</div></div></foreignObject><text x="1825" y="135" dominant-baseline="central" alignment-baseline="central" class="task" style="text-anchor: middle; font-size: 14px; font-family: &quot;Open Sans&quot;, sans-serif;"><tspan x="1825" dy="0">Click Heat Distribution</tspan></text></switch></g><g><line id="task9" x1="2025" y1="110" x2="2025" y2="450" class="task-line" stroke-width="1px" stroke-dasharray="4 2" stroke="#666"/><circle cx="2025" cy="420" class="face" r="15" stroke-width="2" overflow="visible"/><g><circle cx="2020" cy="415" r="1.5" stroke-width="2" fill="#666" stroke="#666"/><circle cx="2030" cy="415" r="1.5" stroke-width="2" fill="#666" stroke="#666"/><path class="mouth" d="M-7.5,0A7.5,7.5,0,1,1,7.5,0L6.818,0A6.818,6.818,0,1,0,-6.818,0Z" transform="translate(2025,427)"/></g><rect x="1950" y="110" fill="#2F4F4F" stroke="#666" width="150" height="50" rx="3" ry="3" class="task task-type-3"/><circle cx="1964" cy="110" class="actor-1" fill="#7CFC00" stroke="#000" r="7"><title>Emma</title></circle><switch><foreignObject x="1950" y="110" width="150" height="50"><div class="task" xmlns="http://www.w3.org/1999/xhtml" style="display: table; height: 100%; width: 100%;"><div class="label" style="display: table-cell; text-align: center; vertical-align: middle;">Click NDVI Vegetation</div></div></foreignObject><text x="2025" y="135" dominant-baseline="central" alignment-baseline="central" class="task" style="text-anchor: middle; font-size: 14px; font-family: &quot;Open Sans&quot;, sans-serif;"><tspan x="2025" dy="0">Click NDVI Vegetation</tspan></text></switch></g><g><line id="task10" x1="2225" y1="110" x2="2225" y2="450" class="task-line" stroke-width="1px" stroke-dasharray="4 2" stroke="#666"/><circle cx="2225" cy="420" class="face" r="15" stroke-width="2" overflow="visible"/><g><circle cx="2220" cy="415" r="1.5" stroke-width="2" fill="#666" stroke="#666"/><circle cx="2230" cy="415" r="1.5" stroke-width="2" fill="#666" stroke="#666"/><path class="mouth" d="M-7.5,0A7.5,7.5,0,1,1,7.5,0L6.818,0A6.818,6.818,0,1,0,-6.818,0Z" transform="translate(2225,427)"/></g><rect x="2150" y="110" fill="#2F4F4F" stroke="#666" width="150" height="50" rx="3" ry="3" class="task task-type-3"/><circle cx="2164" cy="110" class="actor-1" fill="#7CFC00" stroke="#000" r="7"><title>Emma</title></circle><switch><foreignObject x="2150" y="110" width="150" height="50"><div class="task" xmlns="http://www.w3.org/1999/xhtml" style="display: table; height: 100%; width: 100%;"><div class="label" style="display: table-cell; text-align: center; vertical-align: middle;">Click Building Analysis</div></div></foreignObject><text x="2225" y="135" dominant-baseline="central" alignment-baseline="central" class="task" style="text-anchor: middle; font-size: 14px; font-family: &quot;Open Sans&quot;, sans-serif;"><tspan x="2225" dy="0">Click Building Analysis</tspan></text></switch></g><text x="150" font-size="4ex" font-weight="bold" y="25" fill="" font-family="&quot;trebuchet ms&quot;, verdana, arial, sans-serif">Postal-code drill-down (Emma)</text><line x1="150" y1="200" x2="2346" y2="200" stroke-width="4" stroke="black" marker-end="url(#arrowhead)"/></svg>
